<svg
        xmlns:dc="http://purl.org/dc/elements/1.1/"
        xmlns:cc="http://creativecommons.org/ns#"
        xmlns:rdf="http://www.w3.org/1999/02/22-rdf-syntax-ns#"
        xmlns:svg="http://www.w3.org/2000/svg"
        xmlns="http://www.w3.org/2000/svg"
        viewBox="0 0 89.453331 114.45333"
        height="114.45333"
        width="89.453331"
        xml:space="preserve"
        id="svg2"
        version="1.1"><metadata
     id="metadata8"><rdf:RDF><cc:Work
         rdf:about=""><dc:format>image/svg+xml</dc:format><dc:type
        rdf:resource="http://purl.org/dc/dcmitype/StillImage" /></cc:Work></rdf:RDF></metadata><defs
        id="defs6"><clipPath
       id="clipPath20"
       clipPathUnits="userSpaceOnUse"><path
         id="path18"
         d="m 390.434,475.027 c -26.055,-28.836 -70.461,-31.027 -99.219,-4.91 -28.766,26.113 -30.988,70.684 -4.985,99.528 26.043,28.847 70.485,31.015 99.235,4.902 28.758,-26.117 30.976,-70.668 4.969,-99.52 z" /></clipPath><radialGradient
        id="radialGradient26"
        spreadMethod="pad"
        gradientTransform="matrix(98.8633,-0.09551,-0.0639074,-99.1506,315.85,561.596)"
        gradientUnits="userSpaceOnUse"
        r="1"
        cy="0"
        cx="0"
        fy="0"
        fx="0"><stop
         id="stop22"
         offset="0"
         style="stop-opacity:1;stop-color:#5594d6" /><stop
        id="stop24"
        offset="1"
        style="stop-opacity:1;stop-color:#1b2765" /></radialGradient><clipPath
        id="clipPath36"
        clipPathUnits="userSpaceOnUse"><path
         id="path34"
         d="M 0,0 H 671 V 858 H 0 Z" /></clipPath><clipPath
        id="clipPath42"
        clipPathUnits="userSpaceOnUse"><path
         id="path40"
         d="m 356.617,763.359 c 5.918,-5.793 11.348,-11.718 16.289,-17.629 28.27,-33.875 41.485,-67.152 41.485,-67.152 18.035,-3.348 34.89,-4.273 50.605,-3.5 1.016,0.063 1.961,0.063 2.996,0.133 0.938,0.078 1.797,0.195 2.746,0.266 34.785,3.14 79.961,16.472 121.27,57.871 1.414,1.425 2.832,2.937 4.238,4.425 -6.387,7.633 -12.98,15.157 -20.129,22.34 -119.988,119.598 -307.265,130.028 -439.082,31.465 103.43,50.125 175.078,15.547 219.582,-28.219 z" /></clipPath><linearGradient
        id="linearGradient48"
        spreadMethod="pad"
        gradientTransform="matrix(295.745,-119.092,-119.092,-295.745,241.831,835.864)"
        gradientUnits="userSpaceOnUse"
        y2="0"
        x2="1"
        y1="0"
        x1="0"><stop
         id="stop44"
         offset="0"
         style="stop-opacity:1;stop-color:#5594d6" /><stop
        id="stop46"
        offset="1"
        style="stop-opacity:1;stop-color:#1b2765" /></linearGradient><clipPath
        id="clipPath58"
        clipPathUnits="userSpaceOnUse"><path
         id="path56"
         d="m 118.375,421.586 c 2.059,8.004 4.48,15.672 7.117,22.91 15.207,41.426 37.422,69.512 37.422,69.512 -6.117,17.297 -13.75,32.355 -22.285,45.562 -0.547,0.856 -1.016,1.68 -1.606,2.539 -0.531,0.766 -1.07,1.477 -1.597,2.246 -20.113,28.543 -54.2541,61.012 -110.7502,76.079 -1.9492,0.519 -3.957,0.98 -5.9531,1.461 -3.418,-9.344 -6.6368,-18.813 -9.293,-28.598 C -32.1445,449.578 52.4648,282.18 203.715,217.313 108.598,281.816 102.73,361.156 118.375,421.586 Z" /></clipPath><linearGradient
        id="linearGradient64"
        spreadMethod="pad"
        gradientTransform="matrix(-44.7386,315.662,315.662,44.7386,112.988,285.932)"
        gradientUnits="userSpaceOnUse"
        y2="0"
        x2="1"
        y1="0"
        x1="0"><stop
         id="stop60"
         offset="0"
         style="stop-opacity:1;stop-color:#5594d6" /><stop
        id="stop62"
        offset="1"
        style="stop-opacity:1;stop-color:#1b2765" /></linearGradient><clipPath
        id="clipPath74"
        clipPathUnits="userSpaceOnUse"><path
         id="path72"
         d="m 534.273,385.762 c -7.968,-2.215 -15.812,-3.942 -23.398,-5.285 -43.477,-7.543 -78.906,-2.356 -78.906,-2.356 -11.934,-13.937 -21.145,-28.086 -28.34,-42.066 -0.43,-0.914 -0.918,-1.735 -1.379,-2.672 -0.398,-0.848 -0.73,-1.656 -1.133,-2.5 -14.687,-31.695 -25.722,-77.496 -10.515,-133.957 0.515,-1.938 1.132,-3.918 1.718,-5.891 9.793,1.719 19.61,3.684 29.395,6.278 C 585.289,241.414 687.973,398.387 668.5,561.82 660.199,447.191 594.438,402.422 534.273,385.762 Z" /></clipPath><linearGradient
        id="linearGradient80"
        spreadMethod="pad"
        gradientTransform="matrix(-251.009,-196.572,-196.572,251.009,654.448,448.921)"
        gradientUnits="userSpaceOnUse"
        y2="0"
        x2="1"
        y1="0"
        x1="0"><stop
         id="stop76"
         offset="0"
         style="stop-opacity:1;stop-color:#5594d6" /><stop
        id="stop78"
        offset="1"
        style="stop-opacity:1;stop-color:#1b2765" /></linearGradient><clipPath
        id="clipPath90"
        clipPathUnits="userSpaceOnUse"><path
         id="path88"
         d="m 137.035,791.578 c 0,0 -73.0155,-45.723 -111.1717,-137.512 10,-1.73 111.8517,-22.265 149.8007,-135.449 9.277,5.918 37.758,28.418 56.902,90.422 23.141,74.953 67.082,130.254 124.051,154.32 0,0 -72.16,102.856 -219.582,28.219 z" /></clipPath><linearGradient
        id="linearGradient96"
        spreadMethod="pad"
        gradientTransform="matrix(132.939,203.992,203.992,-132.939,123.535,609.463)"
        gradientUnits="userSpaceOnUse"
        y2="0"
        x2="1"
        y1="0"
        x1="0"><stop
         id="stop92"
         offset="0"
         style="stop-opacity:1;stop-color:#5594d6" /><stop
        id="stop94"
        offset="1"
        style="stop-opacity:1;stop-color:#1b2765" /></linearGradient><clipPath
        id="clipPath106"
        clipPathUnits="userSpaceOnUse"><path
         id="path104"
         d="m 368.383,251.941 c -0.02,37.997 10.539,88.282 52.734,135.661 l 0.469,0.734 c -6.883,7.355 -31.004,25.492 -93.027,11.355 -76.465,-17.441 -160.848,-15.418 -210.184,21.895 0,0 -52.9922,-113.922 85.34,-204.273 0,0 76.004,-40.321 174.465,-27.547 -1.778,4.902 -9.785,28.82 -9.797,62.175 z" /></clipPath><linearGradient
        id="linearGradient112"
        spreadMethod="pad"
        gradientTransform="matrix(-238.478,-24.3108,-24.3108,238.478,375.034,318.535)"
        gradientUnits="userSpaceOnUse"
        y2="0"
        x2="1"
        y1="0"
        x1="0"><stop
         id="stop108"
         offset="0"
         style="stop-opacity:1;stop-color:#5594d6" /><stop
        id="stop110"
        offset="1"
        style="stop-opacity:1;stop-color:#1b2765" /></linearGradient><clipPath
        id="clipPath122"
        clipPathUnits="userSpaceOnUse"><path
         id="path120"
         d="m 605.055,726.801 c -10.879,-13.203 -62.59,-67.375 -148.867,-67.446 -13.887,0 -28.633,1.407 -44.219,4.629 l -0.742,0.176 c -2.852,-10.441 -5.196,-40.004 36.921,-85.414 53.313,-57.516 93.762,-131.601 86.125,-192.984 0,0 125.176,11.07 134.227,176.058 0,0 -3.086,86.067 -63.445,164.981 z" /></clipPath><linearGradient
        id="linearGradient128"
        spreadMethod="pad"
        gradientTransform="matrix(48.6218,-245.425,-245.425,-48.6218,528.569,663.496)"
        gradientUnits="userSpaceOnUse"
        y2="0"
        x2="1"
        y1="0"
        x1="0"><stop
         id="stop124"
         offset="0"
         style="stop-opacity:1;stop-color:#5594d6" /><stop
        id="stop126"
        offset="1"
        style="stop-opacity:1;stop-color:#1b2765" /></linearGradient></defs><g
        transform="matrix(1.3333333,0,0,-1.3333333,0,114.45333)"
        id="g10"><g
       transform="scale(0.1)"
       id="g12"><g
         id="g14"><g
           clip-path="url(#clipPath20)"
           id="g16"><path
             id="path28"
             style="fill:url(#radialGradient26);fill-opacity:1;fill-rule:nonzero;stroke:none"
             d="m 390.434,475.027 c -26.055,-28.836 -70.461,-31.027 -99.219,-4.91 -28.766,26.113 -30.988,70.684 -4.985,99.528 26.043,28.847 70.485,31.015 99.235,4.902 28.758,-26.117 30.976,-70.668 4.969,-99.52" /></g></g><g
        id="g30"><g
           clip-path="url(#clipPath36)"
           id="g32"><g
             clip-path="url(#clipPath42)"
             id="g38"><path
               id="path50"
               style="fill:url(#linearGradient48);fill-opacity:1;fill-rule:nonzero;stroke:none"
               d="m 455,674 v 1 h -21 v 1 h -9 v 1 h -8 v 1 h -3 v 1 h -1 v 2 h -1 v 3 h -1 v 2 h -1 v 2 h -1 v 2 h -1 v 2 h -1 v 2 h -1 v 2 h -1 v 2 h -1 v 1 h -1 v 2 h -1 v 2 h -1 v 2 h -1 v 1 h -1 v 2 h -1 v 2 h -1 v 1 h -1 v 2 h -1 v 2 h -1 v 1 h -1 v 2 h -1 v 1 h -1 v 2 h -1 v 1 h -1 v 2 h -1 v 1 h -1 v 2 h -1 v 1 h -1 v 1 h -1 v 2 h -1 v 1 h -1 v 2 h -1 v 1 h -1 v 1 h -1 v 2 h -1 v 1 h -1 v 1 h -1 v 1 h -1 v 2 h -1 v 1 h -1 v 1 h -1 v 1 h -1 v 1 h -1 v 2 h -1 v 1 h -1 v 1 h -1 v 1 h -1 v 1 h -1 v 1 h -1 v 1 h -1 v 1 h -1 v 1 h -1 v 1 h -1 v 1 h -1 v 1 h -1 v 2 h -2 v 1 h -1 v 1 h -1 v 1 h -1 v 1 h -1 v 1 h -1 v 1 h -1 v 1 h -1 v 1 h -1 v 1 h -1 v 1 h -1 v 1 h -2 v 1 h -1 v 1 h -1 v 1 h -1 v 1 h -1 v 1 h -2 v 1 h -1 v 1 h -1 v 1 h -2 v 1 h -1 v 1 h -1 v 1 h -2 v 1 h -1 v 1 h -2 v 1 h -1 v 1 h -2 v 1 h -1 v 1 h -2 v 1 h -1 v 1 h -2 v 1 h -2 v 1 h -2 v 1 h -1 v 1 h -2 v 1 h -2 v 1 h -2 v 1 h -2 v 1 h -2 v 1 h -3 v 1 h -2 v 1 h -2 v 1 h -2 v 1 h -3 v 1 h -3 v 1 h -3 v 1 h -3 v 1 h -3 v 1 h -4 v 1 h -4 v 1 h -4 v 1 h -6 v 1 h -6 v 1 h -13 v 1 h -17 v -1 h -10 v -1 h -8 v -1 h -6 v -1 h -5 v -1 h -5 v -1 h -4 v -1 h -3 v -1 h -4 v -1 h -4 v -1 h -3 v -1 h -2 v -1 h -3 v -1 h -3 v -1 h -3 v -1 h -3 v -1 h -2 v -1 h -3 v -1 h -2 v -1 h -2 v -1 h -3 v -1 h -2 v -1 h -2 v -1 h -3 v -1 h -2 v -1 h -1 v 2 h 1 v 1 h 2 v 1 h 1 v 1 h 1 v 1 h 2 v 1 h 1 v 1 h 2 v 1 h 2 v 1 h 1 v 1 h 2 v 1 h 1 v 1 h 2 v 1 h 1 v 1 h 2 v 1 h 1 v 1 h 2 v 1 h 1 v 1 h 2 v 1 h 2 v 1 h 2 v 1 h 1 v 1 h 2 v 1 h 2 v 1 h 2 v 1 h 2 v 1 h 2 v 1 h 1 v 1 h 2 v 1 h 2 v 1 h 2 v 1 h 2 v 1 h 2 v 1 h 2 v 1 h 2 v 1 h 2 v 1 h 3 v 1 h 2 v 1 h 2 v 1 h 2 v 1 h 3 v 1 h 2 v 1 h 2 v 1 h 3 v 1 h 2 v 1 h 3 v 1 h 3 v 1 h 3 v 1 h 3 v 1 h 3 v 1 h 3 v 1 h 3 v 1 h 3 v 1 h 3 v 1 h 4 v 1 h 4 v 1 h 4 v 1 h 4 v 1 h 4 v 1 h 4 v 1 h 4 v 1 h 7 v 1 h 6 v 1 h 7 v 1 h 7 v 1 h 11 v 1 h 57 v -1 h 9 v -1 h 9 v -1 h 8 v -1 h 5 v -1 h 5 v -1 h 5 v -1 h 5 v -1 h 5 v -1 h 4 v -1 h 3 v -1 h 4 v -1 h 3 v -1 h 3 v -1 h 4 v -1 h 3 v -1 h 4 v -1 h 3 v -1 h 2 v -1 h 3 v -1 h 2 v -1 h 3 v -1 h 3 v -1 h 2 v -1 h 3 v -1 h 2 v -1 h 3 v -1 h 2 v -1 h 3 v -1 h 2 v -1 h 2 v -1 h 2 v -1 h 2 v -1 h 2 v -1 h 2 v -1 h 2 v -1 h 2 v -1 h 2 v -1 h 2 v -1 h 2 v -1 h 2 v -1 h 2 v -1 h 1 v -1 h 2 v -1 h 1 v -1 h 2 v -1 h 2 v -1 h 1 v -1 h 2 v -1 h 2 v -1 h 1 v -1 h 2 v -1 h 1 v -1 h 2 v -1 h 2 v -1 h 1 v -1 h 2 v -1 h 1 v -1 h 2 v -1 h 1 v -1 h 1 v -1 h 2 v -1 h 1 v -1 h 1 v -1 h 2 v -1 h 1 v -1 h 1 v -1 h 2 v -1 h 1 v -1 h 1 v -1 h 2 v -1 h 1 v -1 h 1 v -1 h 2 v -1 h 1 v -1 h 1 v -1 h 2 v -1 h 1 v -1 h 1 v -1 h 1 v -1 h 1 v -1 h 1 v -1 h 1 v -1 h 2 v -1 h 1 v -1 h 1 v -1 h 1 v -1 h 1 v -1 h 1 v -1 h 1 v -1 h 2 v -1 h 1 v -1 h 1 v -1 h 1 v -1 h 1 v -1 h 1 v -1 h 1 v -1 h 1 v -1 h 1 v -1 h 1 v -1 h 1 v -2 h 1 v -1 h 1 v -1 h 1 v -1 h 1 v -1 h 1 v -1 h 1 v -1 h 1 v -1 h 1 v -1 h 1 v -2 h 1 v -1 h 1 v -1 h 1 v -1 h 1 v -1 h 1 v -1 h 1 v -1 h 1 v -1 h 1 v -2 h -1 v -1 h -1 v -1 h -1 v -1 h -1 v -1 h -1 v -1 h -1 v -1 h -1 v -1 h -1 v -1 h -1 v -1 h -1 v -1 h -1 v -1 h -1 v -1 h -1 v -1 h -2 v -1 h -1 v -1 h -1 v -1 h -1 v -1 h -1 v -1 h -1 v -1 h -2 v -1 h -1 v -1 h -1 v -1 h -2 v -1 h -1 v -1 h -1 v -1 h -2 v -1 h -1 v -1 h -1 v -1 h -2 v -1 h -1 v -1 h -1 v -1 h -2 v -1 h -2 v -1 h -1 v -1 h -2 v -1 h -2 v -1 h -1 v -1 h -2 v -1 h -2 v -1 h -1 v -1 h -2 v -1 h -2 v -1 h -2 v -1 h -2 v -1 h -3 v -1 h -2 v -1 h -2 v -1 h -2 v -1 h -2 v -1 h -3 v -1 h -3 v -1 h -2 v -1 h -3 v -1 h -3 v -1 h -3 v -1 h -4 v -1 h -3 v -1 h -4 v -1 h -5 v -1 h -5 v -1 h -5 v -1 h -8 v -1 h -12 v -1" /></g></g></g><g
        id="g52"><g
           clip-path="url(#clipPath58)"
           id="g54"><path
             id="path66"
             style="fill:url(#linearGradient64);fill-opacity:1;fill-rule:nonzero;stroke:none"
             d="m 118.375,421.586 c 2.059,8.004 4.48,15.672 7.117,22.91 15.207,41.426 37.422,69.512 37.422,69.512 -6.117,17.297 -13.75,32.355 -22.285,45.562 -0.547,0.856 -1.016,1.68 -1.606,2.539 -0.531,0.766 -1.07,1.477 -1.597,2.246 -20.113,28.543 -54.2541,61.012 -110.7502,76.079 -1.9492,0.519 -3.957,0.98 -5.9531,1.461 -3.418,-9.344 -6.6368,-18.813 -9.293,-28.598 C -32.1445,449.578 52.4648,282.18 203.715,217.313 108.598,281.816 102.73,361.156 118.375,421.586" /></g></g><g
        id="g68"><g
           clip-path="url(#clipPath74)"
           id="g70"><path
             id="path82"
             style="fill:url(#linearGradient80);fill-opacity:1;fill-rule:nonzero;stroke:none"
             d="m 534.273,385.762 c -7.968,-2.215 -15.812,-3.942 -23.398,-5.285 -43.477,-7.543 -78.906,-2.356 -78.906,-2.356 -11.934,-13.937 -21.145,-28.086 -28.34,-42.066 -0.43,-0.914 -0.918,-1.735 -1.379,-2.672 -0.398,-0.848 -0.73,-1.656 -1.133,-2.5 -14.687,-31.695 -25.722,-77.496 -10.515,-133.957 0.515,-1.938 1.132,-3.918 1.718,-5.891 9.793,1.719 19.61,3.684 29.395,6.278 C 585.289,241.414 687.973,398.387 668.5,561.82 660.199,447.191 594.438,402.422 534.273,385.762" /></g></g><g
        id="g84"><g
           clip-path="url(#clipPath90)"
           id="g86"><path
             id="path98"
             style="fill:url(#linearGradient96);fill-opacity:1;fill-rule:nonzero;stroke:none"
             d="m 137.035,791.578 c 0,0 -73.0155,-45.723 -111.1717,-137.512 10,-1.73 111.8517,-22.265 149.8007,-135.449 9.277,5.918 37.758,28.418 56.902,90.422 23.141,74.953 67.082,130.254 124.051,154.32 0,0 -72.16,102.856 -219.582,28.219" /></g></g><g
        id="g100"><g
           clip-path="url(#clipPath106)"
           id="g102"><path
             id="path114"
             style="fill:url(#linearGradient112);fill-opacity:1;fill-rule:nonzero;stroke:none"
             d="m 368.383,251.941 c -0.02,37.997 10.539,88.282 52.734,135.661 l 0.469,0.734 c -6.883,7.355 -31.004,25.492 -93.027,11.355 -76.465,-17.441 -160.848,-15.418 -210.184,21.895 0,0 -52.9922,-113.922 85.34,-204.273 0,0 76.004,-40.321 174.465,-27.547 -1.778,4.902 -9.785,28.82 -9.797,62.175" /></g></g><g
        id="g116"><g
           clip-path="url(#clipPath122)"
           id="g118"><path
             id="path130"
             style="fill:url(#linearGradient128);fill-opacity:1;fill-rule:nonzero;stroke:none"
             d="m 605.055,726.801 c -10.879,-13.203 -62.59,-67.375 -148.867,-67.446 -13.887,0 -28.633,1.407 -44.219,4.629 l -0.742,0.176 c -2.852,-10.441 -5.196,-40.004 36.921,-85.414 53.313,-57.516 93.762,-131.601 86.125,-192.984 0,0 125.176,11.07 134.227,176.058 0,0 -3.086,86.067 -63.445,164.981" /></g></g><path
        id="path132"
        style="fill:#393536;fill-opacity:1;fill-rule:nonzero;stroke:none"
        d="m 60.6133,44.1484 h 9.9765 c 10.9493,0 17.5157,4.2696 17.5157,13.2735 0,9.4804 -6.1992,13.125 -17.3985,13.125 H 60.6133 Z M 60.9805,1.46484 h -18.25 V 86.6016 h 29.3203 c 21.4101,0 34.9062,-8.8672 34.9062,-28.4571 0,-19.2187 -13.8593,-30.0507 -36.6093,-30.0507 H 60.9805 V 1.46484" /><path
        id="path134"
        style="fill:#393536;fill-opacity:1;fill-rule:nonzero;stroke:none"
        d="m 183.277,44.0313 c 0,19.3476 -8.879,27.9804 -22.14,27.9804 -12.043,0 -21.532,-9.0039 -21.532,-27.9804 0,-18.9727 9.86,-27.9766 22.625,-27.9766 12.411,0 21.047,8.8867 21.047,27.9766 z m -63.007,0 c 0,28.5859 17.39,44.0351 40.867,44.0351 26.273,0 41.484,-16.6719 41.484,-44.0351 C 202.621,13.75 184.977,0 161.625,0 136.93,0 120.27,15.4492 120.27,44.0313" /><path
        id="path136"
        style="fill:#393536;fill-opacity:1;fill-rule:nonzero;stroke:none"
        d="M 283.805,4.86328 C 279.418,2.55859 273.223,0 260.816,0 c -26.035,0 -43.183,14.9609 -43.183,42.9375 0,29.3086 17.148,45.1289 45.004,45.1289 9.25,0 16.91,-1.9531 21.41,-4.0117 l -4.012,-15.3242 c -5.109,1.6992 -10.949,2.5468 -14.84,2.5468 -16.793,0 -28.222,-8.3867 -28.222,-27.246 0,-17.9961 10.953,-27.1368 28.101,-27.1368 3.887,0 9.852,1.1133 15.078,3.3008 l 3.653,-15.33202" /><path
        id="path138"
        style="fill:#393536;fill-opacity:1;fill-rule:nonzero;stroke:none"
        d="m 317.777,34.1797 h 29.328 l -14.238,40.0195 h -0.488 z m 32.852,-9.9805 H 314.254 L 305.98,1.46484 h -11.062 l 32.48,85.13676 h 10.938 L 370.211,1.46484 h -11.426 l -8.156,22.73436" /><path
        id="path140"
        style="fill:#393536;fill-opacity:1;fill-rule:nonzero;stroke:none"
        d="M 408.207,1.46484 H 397.262 V 76.3867 h -25.188 v 10.2149 h 61.321 V 76.3867 H 408.207 V 1.46484" /><path
        id="path142"
        style="fill:#393536;fill-opacity:1;fill-rule:nonzero;stroke:none"
        d="m 510.434,44.0313 c 0,23.3515 -10.457,33.5664 -27.254,33.5664 -14.961,0 -26.504,-10.8204 -26.504,-33.5664 0,-22.3711 11.179,-33.5625 27.969,-33.5625 15.937,0 25.789,11.5429 25.789,33.5625 z m -65.457,0 c 0,27.246 15.703,43.789 38.203,43.789 25.3,0 38.925,-17.9961 38.925,-43.789 0,-28.9532 -16.289,-43.789112 -38.554,-43.789112 -23.594,0 -38.574,16.789112 -38.574,43.789112" /><path
        id="path144"
        style="fill:#393536;fill-opacity:1;fill-rule:nonzero;stroke:none"
        d="M 627.867,1.46484 H 616.918 L 611.695,67.9961 590.152,1.46484 H 578.715 L 557.32,67.7539 551.957,1.46484 H 541.02 l 7.296,85.13676 h 13.379 l 22.989,-73.2227 22.5,73.2227 h 13.398 l 7.285,-85.13676" /></g></g></svg>
